<svg width="27" height="27" viewBox="0 0 27 27" fill="none" xmlns="http://www.w3.org/2000/svg">
<g clip-path="url(#clip0_14_100)">
<path d="M26.948 14.7468C26.7055 12.3084 25.6162 10.0096 23.8804 8.27386C22.3971 6.79058 20.5815 5.83739 18.6712 5.41356V4.07366C19.4514 3.87954 20.0314 3.17326 20.0314 2.33377C20.0314 1.34509 19.2271 0.540771 18.2384 0.540771H14.4415C13.4528 0.540771 12.6485 1.34509 12.6485 2.33377C12.6485 3.17321 13.2285 3.87949 14.0087 4.07366V5.4173C12.1042 5.84293 10.2946 6.7948 8.81548 8.27391C8.49179 8.5976 8.19331 8.93716 7.92009 9.29007C7.90685 9.28907 7.89362 9.28806 7.88012 9.28806H4.12215C3.83095 9.28806 3.5948 9.52416 3.5948 9.81542C3.5948 10.1067 3.83095 10.3428 4.12215 10.3428H7.20252C6.81587 10.9901 6.5041 11.6699 6.26679 12.3697H0.527352C0.236148 12.3697 0 12.6058 0 12.897C0 13.1883 0.236148 13.4244 0.527352 13.4244H5.96878C5.8168 14.0916 5.72957 14.7705 5.70706 15.4514H3.37505C3.08385 15.4514 2.8477 15.6875 2.8477 15.9787C2.8477 16.27 3.08385 16.5061 3.37505 16.5061H5.72388C5.76839 17.1887 5.87813 17.8677 6.05316 18.5331H2.63676C2.34556 18.5331 2.10941 18.7692 2.10941 19.0604C2.10941 19.3517 2.34556 19.5878 2.63676 19.5878H6.38971C6.90705 20.9563 7.71553 22.239 8.81548 23.3389C10.5529 25.0763 12.854 26.166 15.2949 26.4071C15.6433 26.4415 15.9919 26.4585 16.3401 26.4585C18.3979 26.4585 20.4296 25.863 22.1535 24.7404C22.3976 24.5814 22.4666 24.2547 22.3077 24.0107C22.1487 23.7666 21.822 23.6976 21.578 23.8565C17.8044 26.3138 12.7506 25.7825 9.56126 22.5932C5.81907 18.851 5.81907 12.762 9.56126 9.01975C13.3034 5.27761 19.3924 5.27761 23.1346 9.01975C26.3198 12.205 26.854 17.2544 24.4048 21.0261C24.2462 21.2704 24.3156 21.597 24.5598 21.7556C24.8042 21.9142 25.1307 21.8448 25.2893 21.6005C26.5979 19.5852 27.1869 17.1513 26.948 14.7468ZM13.7032 2.33382C13.7032 1.92671 14.0344 1.59553 14.4415 1.59553H18.2384C18.6455 1.59553 18.9767 1.92671 18.9767 2.33382C18.9767 2.74094 18.6455 3.07211 18.2384 3.07211H18.1438H14.536H14.4415C14.0344 3.07211 13.7032 2.74088 13.7032 2.33382ZM15.0634 5.236V4.12682H17.6165V5.2341C16.7687 5.13327 15.911 5.1339 15.0634 5.236Z" fill="#FFD600"/>
<path d="M23.5078 22.4386C23.3685 22.4386 23.233 22.495 23.135 22.5931C23.0364 22.6912 22.9804 22.8273 22.9804 22.9659C22.9804 23.1046 23.0364 23.2407 23.135 23.3388C23.233 23.4374 23.3686 23.4933 23.5078 23.4933C23.6465 23.4933 23.782 23.4374 23.8806 23.3388C23.9787 23.2407 24.0351 23.1046 24.0351 22.9659C24.0351 22.8273 23.9787 22.6912 23.8806 22.5931C23.782 22.495 23.6464 22.4386 23.5078 22.4386Z" fill="#FFD600"/>
<path d="M16.348 7.62573C11.8371 7.62573 8.16725 11.2956 8.16725 15.8065C8.16725 20.3174 11.8371 23.9872 16.348 23.9872C20.8589 23.9872 24.5288 20.3174 24.5288 15.8065C24.5288 11.2956 20.8589 7.62573 16.348 7.62573ZM16.348 22.9325C12.4187 22.9325 9.22196 19.7358 9.22196 15.8065C9.22196 11.8772 12.4187 8.68044 16.348 8.68044C20.2774 8.68044 23.4741 11.8772 23.4741 15.8065C23.4741 19.7358 20.2774 22.9325 16.348 22.9325Z" fill="#FFD600"/>
<path d="M19.6838 11.7245L17.0718 14.3364C16.8534 14.2284 16.6077 14.1674 16.348 14.1674C16.0882 14.1674 15.8426 14.2284 15.6241 14.3364L14.4551 13.1675C14.2492 12.9615 13.9154 12.9615 13.7093 13.1675C13.5034 13.3734 13.5034 13.7073 13.7093 13.9132L14.8783 15.0822C14.7702 15.3007 14.7093 15.5464 14.7093 15.8061C14.7093 16.7096 15.4444 17.4448 16.348 17.4448C17.2516 17.4448 17.9867 16.7096 17.9867 15.8061C17.9867 15.5464 17.9256 15.3007 17.8176 15.0822L20.3529 12.5469L20.4295 12.4703C20.6355 12.2644 20.6355 11.9304 20.4295 11.7245C20.2236 11.5186 19.8898 11.5186 19.6838 11.7245ZM16.348 16.3901C16.026 16.3901 15.764 16.1281 15.764 15.8061C15.764 15.4841 16.026 15.2221 16.348 15.2221C16.67 15.2221 16.932 15.4841 16.932 15.8061C16.932 16.1281 16.67 16.3901 16.348 16.3901Z" fill="#FFD600"/>
<path d="M21.9863 15.2854H21.4977C21.2065 15.2854 20.9704 15.5215 20.9704 15.8127C20.9704 16.104 21.2065 16.3401 21.4977 16.3401H21.9863C22.2775 16.3401 22.5136 16.104 22.5136 15.8127C22.5136 15.5215 22.2775 15.2854 21.9863 15.2854Z" fill="#FFD600"/>
<path d="M11.1981 15.2728H10.7096C10.4184 15.2728 10.1822 15.5089 10.1822 15.8002C10.1822 16.0914 10.4184 16.3275 10.7096 16.3275H11.1981C11.4893 16.3275 11.7254 16.0914 11.7254 15.8002C11.7254 15.5089 11.4893 15.2728 11.1981 15.2728Z" fill="#FFD600"/>
<path d="M16.3544 11.1835C16.6456 11.1835 16.8817 10.9474 16.8817 10.6561V10.1676C16.8817 9.87635 16.6456 9.64026 16.3544 9.64026C16.0632 9.64026 15.8271 9.87635 15.8271 10.1676V10.6561C15.8271 10.9474 16.0632 11.1835 16.3544 11.1835Z" fill="#FFD600"/>
<path d="M16.3416 20.4286C16.0504 20.4286 15.8142 20.6647 15.8142 20.9559V21.4445C15.8142 21.7357 16.0504 21.9718 16.3416 21.9718C16.6328 21.9718 16.8689 21.7357 16.8689 21.4445V20.9559C16.8689 20.6647 16.6328 20.4286 16.3416 20.4286Z" fill="#FFD600"/>
<path d="M0.527344 18.5327C0.388652 18.5327 0.252598 18.5891 0.154512 18.6872C0.0564258 18.7853 0 18.9214 0 19.0601C0 19.1993 0.0563731 19.3348 0.154512 19.4329C0.25265 19.531 0.388652 19.5874 0.527344 19.5874C0.666035 19.5874 0.80209 19.531 0.900123 19.4329C0.998209 19.3348 1.05469 19.1988 1.05469 19.0601C1.05469 18.9214 0.998262 18.7853 0.900123 18.6872C0.80209 18.5891 0.666035 18.5327 0.527344 18.5327Z" fill="#FFD600"/>
</g>
<defs>
<clipPath id="clip0_14_100">
<rect width="27" height="27" fill="white"/>
</clipPath>
</defs>
</svg>
