<svg width="104" height="43" viewBox="0 0 104 43" fill="none" xmlns="http://www.w3.org/2000/svg">
<path d="M20.52 33H0.168V0.983997H6.984V27H20.52V33ZM62.2155 42.408C58.2155 42.408 54.8875 41.256 52.2315 38.952L54.9675 34.536C56.6955 36.456 59.1115 37.416 62.2155 37.416C63.9435 37.416 65.4315 36.952 66.6795 36.024C67.9595 35.128 68.5995 33.64 68.5995 31.56V29.208C66.6795 31.64 64.2955 32.856 61.4475 32.856C58.4395 32.856 55.9755 31.832 54.0555 29.784C52.1675 27.704 51.2235 24.792 51.2235 21.048C51.2235 17.336 52.1675 14.44 54.0555 12.36C55.9755 10.28 58.4395 9.24 61.4475 9.24C64.3275 9.24 66.7115 10.424 68.5995 12.792V9.816H74.7435V31.416C74.7435 33.528 74.3595 35.336 73.5915 36.84C72.8555 38.344 71.8475 39.48 70.5675 40.248C69.2875 41.016 67.9595 41.56 66.5835 41.88C65.2395 42.232 63.7835 42.408 62.2155 42.408ZM63.3675 27.432C64.3595 27.432 65.3515 27.176 66.3435 26.664C67.3355 26.152 68.0875 25.528 68.5995 24.792V17.304C68.0875 16.536 67.3355 15.912 66.3435 15.432C65.3835 14.92 64.3915 14.664 63.3675 14.664C61.6075 14.664 60.1835 15.24 59.0955 16.392C58.0395 17.544 57.5115 19.096 57.5115 21.048C57.5115 23 58.0395 24.552 59.0955 25.704C60.1835 26.856 61.6075 27.432 63.3675 27.432Z" fill="#232323"/>
<path d="M44.829 30.072C42.589 32.408 39.613 33.576 35.901 33.576C32.189 33.576 29.213 32.408 26.973 30.072C24.765 27.704 23.661 24.808 23.661 21.384C23.661 17.96 24.765 15.08 26.973 12.744C29.213 10.408 32.189 9.24 35.901 9.24C39.613 9.24 42.589 10.408 44.829 12.744C47.069 15.08 48.189 17.96 48.189 21.384C48.189 24.808 47.069 27.704 44.829 30.072ZM31.581 26.232C32.637 27.512 34.077 28.152 35.901 28.152C37.725 28.152 39.165 27.512 40.221 26.232C41.309 24.92 41.853 23.304 41.853 21.384C41.853 19.496 41.309 17.912 40.221 16.632C39.165 15.32 37.725 14.664 35.901 14.664C34.077 14.664 32.637 15.32 31.581 16.632C30.525 17.912 29.997 19.496 29.997 21.384C29.997 23.304 30.525 24.92 31.581 26.232ZM100.47 30.072C98.2296 32.408 95.2536 33.576 91.5416 33.576C87.8296 33.576 84.8536 32.408 82.6136 30.072C80.4056 27.704 79.3016 24.808 79.3016 21.384C79.3016 17.96 80.4056 15.08 82.6136 12.744C84.8536 10.408 87.8296 9.24 91.5416 9.24C95.2536 9.24 98.2296 10.408 100.47 12.744C102.71 15.08 103.83 17.96 103.83 21.384C103.83 24.808 102.71 27.704 100.47 30.072ZM87.2216 26.232C88.2776 27.512 89.7176 28.152 91.5416 28.152C93.3656 28.152 94.8056 27.512 95.8616 26.232C96.9496 24.92 97.4936 23.304 97.4936 21.384C97.4936 19.496 96.9496 17.912 95.8616 16.632C94.8056 15.32 93.3656 14.664 91.5416 14.664C89.7176 14.664 88.2776 15.32 87.2216 16.632C86.1656 17.912 85.6376 19.496 85.6376 21.384C85.6376 23.304 86.1656 24.92 87.2216 26.232Z" fill="#FFD600"/>
</svg>
