<svg width="16" height="15" viewBox="0 0 16 15" fill="none" xmlns="http://www.w3.org/2000/svg">
<path d="M15.718 14.0044L12.0573 10.3438C12.9672 9.24957 13.5154 7.84447 13.5154 6.31347C13.5154 2.83221 10.6833 0 7.2022 0C3.72102 0 0.888885 2.83221 0.888885 6.31347C0.888885 9.79451 3.72102 12.6265 7.2022 12.6265C8.73312 12.6265 10.1383 12.0784 11.2325 11.1684L14.8933 14.8292C15.0072 14.9431 15.1565 15 15.3057 15C15.4549 15 15.6042 14.9431 15.7181 14.8292C15.9459 14.6014 15.9459 14.2322 15.718 14.0044ZM2.05527 6.31347C2.05527 3.47535 4.36416 1.16638 7.2022 1.16638C10.0402 1.16638 12.349 3.47535 12.349 6.31347C12.349 9.15136 10.0402 11.4601 7.2022 11.4601C4.36416 11.4601 2.05527 9.15136 2.05527 6.31347Z" fill="#AFB0B4"/>
</svg>
