<svg width="22" height="22" viewBox="0 0 22 22" fill="none" xmlns="http://www.w3.org/2000/svg">
<g clip-path="url(#clip0_9_29)">
<path d="M11.9002 19.4219H15.1701C15.617 18.6519 16.4502 18.1328 17.4023 18.1328H9.66797C10.6202 18.1328 11.4533 18.6519 11.9002 19.4219Z" fill="#FFD600"/>
<path d="M19.6346 19.4219H20.625V18.1328H17.4023C18.3545 18.1328 19.1877 18.6519 19.6346 19.4219Z" fill="#FFD600"/>
<path d="M6.70828 16.9688C7.18266 16.6195 7.51566 16.1154 7.65746 15.5547H20.5408L22 5.15625H5.80912L5.155 1.86394C5.11827 0.829856 4.26555 0 3.22266 0H0V1.28906H3.22266C3.57805 1.28906 3.86719 1.5782 3.86719 1.93359V1.99702L6.44445 14.9693C6.43552 15.3476 6.25028 15.7052 5.9443 15.9307C4.44963 17.0308 5.22345 19.4219 7.08984 19.4219H7.43574C7.88262 18.6519 8.71578 18.1328 9.66797 18.1328H7.08984C6.4692 18.1328 6.208 17.3366 6.70828 16.9688ZM14.1797 11.6875V6.44531H16.7578V11.6875H14.1797ZM12.8906 11.6875H10.3125V6.44531H12.8906V11.6875ZM19.782 11.6875H18.0469V6.44531H20.5176L19.782 11.6875ZM9.02344 6.44531V11.6875H7.10673L6.06525 6.44531H9.02344Z" fill="#FFD600"/>
<path d="M9.66797 22C10.3799 22 10.957 21.4229 10.957 20.7109C10.957 19.999 10.3799 19.4219 9.66797 19.4219C8.95604 19.4219 8.37891 19.999 8.37891 20.7109C8.37891 21.4229 8.95604 22 9.66797 22Z" fill="#FFD600"/>
<path d="M17.4023 22C18.1143 22 18.6914 21.4229 18.6914 20.7109C18.6914 19.999 18.1143 19.4219 17.4023 19.4219C16.6904 19.4219 16.1133 19.999 16.1133 20.7109C16.1133 21.4229 16.6904 22 17.4023 22Z" fill="#FFD600"/>
</g>
<defs>
<clipPath id="clip0_9_29">
<rect width="22" height="22" fill="white"/>
</clipPath>
</defs>
</svg>
