<svg width="20" height="20" viewBox="0 0 20 20" fill="none" xmlns="http://www.w3.org/2000/svg">
<path d="M19.5511 15.806L16.4624 12.7169C15.8472 12.1042 14.8284 12.1228 14.1918 12.7597L12.6357 14.3154C12.5374 14.2612 12.4356 14.2046 12.3286 14.1446C11.346 13.6001 10.0011 12.8539 8.58579 11.4376C7.16634 10.0183 6.41938 8.67128 5.87323 7.68799C5.8156 7.58381 5.76038 7.48338 5.70586 7.388L6.75022 6.34518L7.26367 5.8311C7.90129 5.19331 7.91887 4.1748 7.3051 3.56028L4.21641 0.470905C3.60264 -0.142752 2.58339 -0.124135 1.94577 0.513654L1.07527 1.38915L1.09906 1.41277C0.807169 1.78521 0.563258 2.21477 0.381746 2.678C0.214427 3.11894 0.110254 3.53971 0.0626212 3.96134C-0.34522 7.34243 1.19984 10.4325 5.39294 14.6256C11.1891 20.4214 15.86 19.9835 16.0615 19.9622C16.5004 19.9097 16.921 19.8048 17.3484 19.6388C17.8076 19.4595 18.2369 19.2159 18.6091 18.9246L18.6281 18.9415L19.51 18.078C20.1463 17.4403 20.1646 16.4215 19.5511 15.806Z" fill="#FFD600"/>
</svg>
