<svg width="17" height="21" viewBox="0 0 17 21" fill="none" xmlns="http://www.w3.org/2000/svg">
<path d="M15.444 2.10648H11.6929V0.684797C11.6929 0.306633 11.3863 0 11.0081 0H5.99226C5.61409 0 5.30746 0.306592 5.30746 0.684797V2.10648H1.55638C1.17821 2.10648 0.871582 2.41307 0.871582 2.79128V4.89772C0.871582 5.27588 1.17817 5.58251 1.55638 5.58251H1.76441L2.39031 20.3443C2.40581 20.7108 2.70756 21 3.07445 21H13.9259C14.2928 21 14.5945 20.7108 14.61 20.3442L15.2359 5.58247H15.4439C15.8221 5.58247 16.1287 5.27588 16.1287 4.89768V2.79128C16.1288 2.41303 15.8222 2.10648 15.444 2.10648ZM6.67706 1.36955H10.3233V2.10648H6.67706V1.36955ZM13.2696 19.6304H3.73082L3.13519 5.58251H13.8651L13.2696 19.6304ZM14.7592 4.21292C14.137 4.21292 2.61393 4.21292 2.24118 4.21292V3.47603H14.7592V4.21292Z" fill="#AFB0B4"/>
</svg>
