<svg width="23" height="21" viewBox="0 0 23 21" fill="none" xmlns="http://www.w3.org/2000/svg">
<path d="M7.71387 10.6337L8.90712 12.6227L9.81911 11.7107L7.83012 10.5174L7.71387 10.6337Z" fill="#AFB0B4"/>
<path d="M17.7497 2.87488C17.7497 2.77543 17.7892 2.68004 17.8596 2.60972C17.9299 2.53939 18.0253 2.49988 18.1247 2.49988C18.2907 2.50243 18.4559 2.52458 18.6167 2.56588C18.5283 2.43991 18.4032 2.3442 18.2585 2.29176C18.1137 2.23932 17.9564 2.23267 17.8078 2.27273C17.6591 2.31278 17.5264 2.3976 17.4277 2.51567C17.3289 2.63373 17.2689 2.77933 17.2557 2.9327C17.2425 3.08606 17.2768 3.23977 17.354 3.37295C17.4312 3.50613 17.5475 3.61234 17.6871 3.67715C17.8267 3.74197 17.9829 3.76226 18.1345 3.73526C18.286 3.70827 18.4256 3.6353 18.5342 3.52626C18.5829 3.47584 18.6245 3.41893 18.6576 3.35713C18.4885 3.28752 18.3076 3.25111 18.1247 3.24988C18.0253 3.24988 17.9299 3.21037 17.8596 3.14005C17.7892 3.06972 17.7497 2.97434 17.7497 2.87488Z" fill="#AFB0B4"/>
<path d="M20.2324 3.67633L20.5245 1.78746C20.5492 1.62747 20.5391 1.46404 20.4948 1.30833C20.4505 1.15262 20.3731 1.00831 20.268 0.885238C20.1628 0.762168 20.0323 0.663244 19.8854 0.595219C19.7385 0.527195 19.5787 0.491674 19.4168 0.491081C19.3599 0.491065 19.3031 0.495327 19.2469 0.503831L13.4719 1.36633C12.9161 1.45046 12.4015 1.70964 12.003 2.10621L0.768049 13.3375C0.663563 13.4419 0.580679 13.566 0.52413 13.7025C0.467582 13.839 0.438477 13.9853 0.438477 14.133C0.438477 14.2808 0.467582 14.4271 0.52413 14.5636C0.580679 14.7001 0.663563 14.8241 0.768049 14.9286L6.0713 20.2315C6.28557 20.4362 6.57051 20.5504 6.86686 20.5504C7.16321 20.5504 7.44815 20.4362 7.66242 20.2315L14.1814 13.7125C14.6952 17.2468 16.2443 19.75 18.1245 19.75C20.4375 19.75 22.2495 15.9625 22.2495 11.125C22.2495 7.91046 21.4485 5.16021 20.2324 3.67633ZM12.2344 5.05296L13.5604 3.72696C13.595 3.69114 13.6364 3.66257 13.6821 3.64292C13.7279 3.62326 13.7771 3.61292 13.8269 3.61249C13.8767 3.61205 13.9261 3.62154 13.9722 3.6404C14.0182 3.65925 14.0601 3.6871 14.0953 3.72231C14.1305 3.75752 14.1584 3.79939 14.1772 3.84547C14.1961 3.89156 14.2056 3.94094 14.2051 3.99073C14.2047 4.04052 14.1944 4.08973 14.1747 4.13548C14.1551 4.18123 14.1265 4.22261 14.0907 4.25721L13.0298 5.31808L14.0907 6.37858L14.6209 5.84833C14.6916 5.78002 14.7864 5.74222 14.8847 5.74308C14.983 5.74393 15.0771 5.78337 15.1466 5.8529C15.2161 5.92243 15.2556 6.01648 15.2564 6.11481C15.2573 6.21313 15.2195 6.30786 15.1512 6.37858L14.6209 6.90883L15.6814 7.96971L16.7423 6.90883C16.7769 6.87301 16.8183 6.84445 16.864 6.82479C16.9098 6.80514 16.959 6.79479 17.0088 6.79436C17.0586 6.79393 17.1079 6.80342 17.154 6.82227C17.2001 6.84113 17.242 6.86897 17.2772 6.90418C17.3124 6.93939 17.3403 6.98126 17.3591 7.02735C17.378 7.07343 17.3874 7.12281 17.387 7.17261C17.3866 7.2224 17.3762 7.27161 17.3566 7.31736C17.3369 7.36311 17.3084 7.40449 17.2725 7.43908L15.9465 8.76508C15.8762 8.83538 15.7809 8.87488 15.6814 8.87488C15.582 8.87488 15.4866 8.83538 15.4163 8.76508L12.2344 5.58321C12.1641 5.51288 12.1246 5.41752 12.1246 5.31808C12.1246 5.21864 12.1641 5.12328 12.2344 5.05296ZM8.19267 16.5193L7.1318 17.5798C7.0608 17.6465 6.96665 17.6829 6.86927 17.6814C6.77189 17.6799 6.67891 17.6406 6.61002 17.5717C6.54113 17.5029 6.50172 17.4099 6.50014 17.3126C6.49856 17.2152 6.53493 17.121 6.60155 17.05L7.66205 15.9891C7.69691 15.9543 7.72457 15.9129 7.74345 15.8674C7.76232 15.8218 7.77203 15.773 7.77203 15.7238C7.77203 15.6745 7.76232 15.6257 7.74345 15.5802C7.72457 15.5346 7.69691 15.4933 7.66205 15.4585L7.1318 14.9282C7.09697 14.8933 7.05561 14.8657 7.01009 14.8468C6.96456 14.8279 6.91577 14.8182 6.86649 14.8182C6.8172 14.8182 6.76841 14.8279 6.72288 14.8468C6.67736 14.8657 6.636 14.8933 6.60117 14.9282L6.07092 15.4585C5.96645 15.5629 5.84243 15.6458 5.70592 15.7024C5.56942 15.7589 5.42311 15.788 5.27536 15.788C5.12761 15.788 4.9813 15.7589 4.8448 15.7024C4.70829 15.6458 4.58427 15.5629 4.4798 15.4585L3.94955 14.9282C3.84506 14.8237 3.76218 14.6997 3.70563 14.5632C3.64908 14.4267 3.61998 14.2804 3.61998 14.1326C3.61998 13.9849 3.64908 13.8386 3.70563 13.7021C3.76218 13.5656 3.84506 13.4415 3.94955 13.3371L5.01005 12.2766C5.08077 12.2083 5.1755 12.1705 5.27382 12.1713C5.37215 12.1722 5.4662 12.2116 5.53573 12.2811C5.60526 12.3507 5.6447 12.4447 5.64555 12.5431C5.64641 12.6414 5.60861 12.7361 5.5403 12.8068L4.4798 13.8673C4.44493 13.9022 4.41727 13.9435 4.3984 13.989C4.37953 14.0346 4.36982 14.0834 4.36982 14.1326C4.36982 14.1819 4.37953 14.2307 4.3984 14.2762C4.41727 14.3218 4.44493 14.3631 4.4798 14.398L5.01005 14.9282C5.04488 14.9631 5.08623 14.9907 5.13176 15.0096C5.17728 15.0285 5.22608 15.0382 5.27536 15.0382C5.32464 15.0382 5.37344 15.0285 5.41896 15.0096C5.46449 14.9907 5.50585 14.9631 5.54067 14.9282L6.07092 14.398C6.17539 14.2935 6.29942 14.2106 6.43592 14.154C6.57243 14.0975 6.71873 14.0684 6.86649 14.0684C7.01424 14.0684 7.16054 14.0975 7.29705 14.154C7.43355 14.2106 7.55758 14.2935 7.66205 14.398L8.1923 14.9282C8.29678 15.0327 8.37967 15.1567 8.43622 15.2932C8.49277 15.4297 8.52187 15.576 8.52187 15.7238C8.52187 15.8715 8.49277 16.0178 8.43622 16.1543C8.37967 16.2908 8.29678 16.4149 8.1923 16.5193H8.19267ZM12.0709 12.625C12.0456 12.6672 12.0122 12.704 11.9726 12.7333C11.933 12.7626 11.8881 12.7839 11.8403 12.7958C11.7925 12.8078 11.7429 12.8102 11.6942 12.8029C11.6455 12.7957 11.5987 12.7789 11.5564 12.7536L10.4817 12.1086L9.30492 13.2853L9.94992 14.3601C10.0011 14.4454 10.0164 14.5475 9.9923 14.644C9.96821 14.7405 9.90677 14.8235 9.82149 14.8748C9.7362 14.926 9.63406 14.9412 9.53754 14.9171C9.44102 14.8931 9.35802 14.8316 9.3068 14.7463L6.9203 10.7687C6.87731 10.697 6.8595 10.6131 6.86969 10.5301C6.87988 10.4471 6.91749 10.37 6.97655 10.3108L7.50717 9.78021C7.56631 9.72115 7.64348 9.68353 7.72644 9.67334C7.80939 9.66315 7.89337 9.68097 7.96505 9.72396L11.9427 12.1105C12.0279 12.1617 12.0893 12.2447 12.1133 12.3412C12.1374 12.4376 12.1221 12.5397 12.0709 12.625ZM13.185 11.5266C13.1147 11.5969 13.0194 11.6364 12.9199 11.6364C12.8205 11.6364 12.7251 11.5969 12.6548 11.5266L9.47292 8.34471C9.43711 8.31011 9.40854 8.26873 9.38889 8.22298C9.36923 8.17723 9.35889 8.12802 9.35845 8.07823C9.35802 8.02844 9.36751 7.97906 9.38636 7.93297C9.40522 7.88689 9.43307 7.84502 9.46828 7.80981C9.50348 7.7746 9.54535 7.74675 9.59144 7.7279C9.63753 7.70904 9.68691 7.69955 9.7367 7.69999C9.78649 7.70042 9.8357 7.71076 9.88145 7.73042C9.9272 7.75007 9.96858 7.77864 10.0032 7.81446L12.9199 10.7312L14.2459 9.40521C14.3166 9.3369 14.4114 9.2991 14.5097 9.29995C14.608 9.30081 14.7021 9.34025 14.7716 9.40977C14.8411 9.4793 14.8806 9.57336 14.8814 9.67168C14.8823 9.77 14.8445 9.86473 14.7762 9.93546L13.185 11.5266ZM18.1245 19C16.5765 19 15.237 16.4151 14.8587 13.0352L18.9 8.99346C19.2959 8.59946 19.5549 8.08878 19.6388 7.53658L20.067 4.75258C19.8581 4.38658 19.5952 4.05421 19.287 3.76671C19.1779 3.94887 19.0313 4.10575 18.8569 4.22694C18.6825 4.34814 18.4844 4.43087 18.2756 4.46966C18.0668 4.50845 17.8521 4.50241 17.6459 4.45193C17.4396 4.40146 17.2464 4.30771 17.0791 4.1769C16.9118 4.04609 16.7743 3.88121 16.6755 3.69319C16.5768 3.50518 16.5192 3.29832 16.5065 3.08634C16.4938 2.87436 16.5263 2.6621 16.6019 2.46364C16.6774 2.26518 16.7943 2.08506 16.9448 1.93521C17.2307 1.66273 17.6105 1.51074 18.0055 1.51074C18.4004 1.51074 18.7803 1.66273 19.0662 1.93521C19.3442 2.21225 19.5016 2.58785 19.5042 2.98033C19.777 3.17976 20.0225 3.41414 20.2343 3.67746L20.0704 4.74283C20.9269 6.18696 21.4995 8.53071 21.4995 11.125C21.4995 15.3936 19.9538 19 18.1245 19Z" fill="#AFB0B4"/>
</svg>
