<svg width="18" height="17" viewBox="0 0 18 17" fill="none" xmlns="http://www.w3.org/2000/svg">
<path d="M13.6846 11.2205C13.0965 10.6734 12.3624 10.6734 11.7781 11.2205C11.3323 11.637 10.8866 12.0534 10.4484 12.477C10.3285 12.5935 10.2274 12.6182 10.0813 12.5405C9.79288 12.3923 9.48574 12.2723 9.20857 12.1099C7.91633 11.344 6.83384 10.3593 5.87496 9.251C5.39926 8.70039 4.97601 8.11096 4.6801 7.4474C4.62017 7.31328 4.63141 7.22504 4.74752 7.11563C5.19325 6.70973 5.62774 6.29324 6.06598 5.87676C6.67652 5.29791 6.67652 4.62024 6.06224 4.03787C5.71389 3.70609 5.36555 3.38137 5.01721 3.0496C4.65763 2.71076 4.30179 2.3684 3.93847 2.03309C3.3504 1.49307 2.61626 1.49307 2.03194 2.03662C1.58246 2.45311 1.15172 2.88018 0.694749 3.28961C0.271493 3.66727 0.0579922 4.12964 0.0130446 4.66966C-0.0581224 5.54851 0.170361 6.37795 0.492485 7.18622C1.15172 8.85922 2.15555 10.3452 3.37288 11.7076C5.01721 13.55 6.97992 15.0077 9.27599 16.0595C10.3098 16.5324 11.381 16.896 12.5459 16.956C13.3475 16.9983 14.0442 16.8077 14.6023 16.2183C14.9843 15.8159 15.4151 15.4489 15.8196 15.0641C16.4189 14.4924 16.4227 13.8006 15.8271 13.2358C15.1154 12.5617 14.4 11.8911 13.6846 11.2205Z" fill="#FFD600"/>
<path d="M12.9694 8.40744L14.3516 8.18508C14.1343 6.98857 13.535 5.905 12.6248 5.04379C11.6622 4.1367 10.4449 3.56492 9.10395 3.38844L8.90918 4.6979C9.94672 4.83555 10.8906 5.27674 11.636 5.97912C12.3402 6.64267 12.8009 7.4827 12.9694 8.40744Z" fill="#FFD600"/>
<path d="M15.1307 2.74596C13.5351 1.24238 11.5162 0.292936 9.28755 -1.52588e-05L9.09277 1.30944C11.018 1.56357 12.7635 2.38595 14.1419 3.68129C15.4491 4.9131 16.3069 6.46963 16.6177 8.18145L17.9999 7.95909C17.6366 5.97549 16.644 4.17543 15.1307 2.74596Z" fill="#FFD600"/>
</svg>
