<svg width="19" height="17" viewBox="0 0 19 17" fill="none" xmlns="http://www.w3.org/2000/svg">
<path d="M5.57182 12.5685C5.87816 12.2565 5.8741 11.7556 5.56273 11.4486C2.99639 8.92635 1.58333 6.688 1.58333 5.14583C1.58333 3.18174 3.18136 1.58333 5.14583 1.58333C7.11031 1.58333 8.70833 3.18174 8.70833 5.14583C8.70833 5.58284 9.063 5.9375 9.5 5.9375C9.937 5.9375 10.2917 5.58284 10.2917 5.14583C10.2917 3.18174 11.8897 1.58333 13.8542 1.58333C15.8186 1.58333 17.4167 3.18174 17.4167 5.14583C17.4167 8.23616 12.0824 12.9005 9.50271 14.8472C9.13354 14.5658 8.56859 14.1238 7.90758 13.5687C7.57263 13.2877 7.07359 13.331 6.79256 13.6657C6.51115 14.0007 6.55464 14.4997 6.88939 14.7807C8.10898 15.8053 9.00038 16.4489 9.03768 16.4758C9.17587 16.5755 9.33765 16.625 9.5 16.625C9.66197 16.625 9.82413 16.5755 9.96232 16.4762C10.8874 15.8103 19 9.83766 19 5.14583C19 2.30851 16.6915 0 13.8542 0C12.0231 0 10.4125 0.961558 9.5 2.40592C8.58753 0.961558 6.97695 0 5.14583 0C2.30851 0 0 2.30851 0 5.14583C0 7.17293 1.4979 9.67337 4.45235 12.578C4.76392 12.8843 5.26586 12.88 5.57182 12.5685Z" fill="red"/>
</svg>
