<svg width="60" height="59" viewBox="0 0 60 59" fill="none" xmlns="http://www.w3.org/2000/svg">
<path d="M59.4491 21.2639L52.8711 4.1611C51.6246 0.927982 47.9931 -0.682452 44.76 0.564035C44.713 0.582171 44.6662 0.600798 44.6197 0.620037L11.7473 14.2466C8.61721 15.5306 7.07883 19.0736 8.27789 22.2373L9.18176 24.6498H7.10836C3.72611 24.6536 0.985107 27.3946 0.981308 30.7769V52.8343C0.985107 56.2165 3.72611 58.9575 7.10836 58.9613H48.7723C52.1546 58.9575 54.8956 56.2165 54.8994 52.8343V30.7769C54.8974 30.4443 54.8679 30.1125 54.8111 29.7848L55.9493 29.324C59.1073 28.0296 60.6594 24.4551 59.4491 21.2639ZM7.10836 26.6106H48.7723C50.9727 26.6169 52.7877 28.3353 52.9142 30.5319H2.96647C3.09294 28.3351 4.90801 26.6167 7.10836 26.6106ZM16.9616 20.7051L23.5142 17.4279L24.8611 20.7973L18.3086 24.0735L16.9616 20.7051ZM52.9387 52.8344C52.936 55.1344 51.0723 56.9981 48.7723 57.0008H7.10836C4.80839 56.9981 2.94466 55.1344 2.94196 52.8344V40.3352H52.9387V52.8344ZM52.9387 38.3746H2.94196V32.4926H52.9387V38.3746ZM55.2141 27.5125L54.1896 27.9272C53.1315 25.9146 51.0462 24.6531 48.7723 24.65H21.5408L26.5453 22.1472C27.0017 21.9194 27.2072 21.3797 27.0179 20.9061L24.9386 15.7104C24.7375 15.2077 24.1671 14.9631 23.6644 15.1641C23.639 15.1742 23.6142 15.1854 23.5898 15.1976L15.2776 19.3562C14.8216 19.5844 14.6166 20.1239 14.806 20.5973L16.4275 24.65H11.2748L10.114 21.5541C9.29119 19.3805 10.3481 16.9468 12.4982 16.0642L45.3696 2.43769C47.5671 1.52647 50.0873 2.56917 50.9986 4.7667C51.0129 4.80089 51.0266 4.83532 51.0398 4.86988L57.6178 21.9727C58.45 24.1656 57.384 26.6223 55.2141 27.5125Z" fill="#FFD600"/>
<path d="M36.2455 54.2437C38.0724 55.305 40.3282 55.305 42.1551 54.2437C44.964 55.8756 48.564 54.9213 50.1959 52.1124C51.8277 49.3036 50.8735 45.7035 48.0646 44.0717C47.1631 43.5479 46.1386 43.2732 45.0961 43.2756C44.0626 43.2761 43.0477 43.5507 42.1551 44.0717C39.3462 42.4398 35.7462 43.3939 34.1143 46.2028C32.4824 49.0118 33.4367 52.6117 36.2455 54.2437ZM43.7942 45.4756C44.2112 45.3219 44.6516 45.2411 45.0961 45.2364C47.2617 45.2364 49.0174 46.9921 49.0174 49.1577C49.0174 51.3234 47.2617 53.079 45.0961 53.079C44.6516 53.0744 44.2112 52.9935 43.7942 52.8398C45.5299 50.6918 45.5299 47.6235 43.7942 45.4756ZM42.1551 46.5912C43.4622 48.0527 43.4622 50.2628 42.1551 51.7242C40.8479 50.2628 40.8479 48.0525 42.1551 46.5912ZM39.2141 45.2364C39.6586 45.2409 40.099 45.3219 40.516 45.4756C38.7803 47.6235 38.7803 50.6919 40.516 52.8398C40.099 52.9935 39.6586 53.0744 39.2141 53.079C37.0484 53.079 35.2928 51.3234 35.2928 49.1577C35.2928 46.9919 37.0484 45.2364 39.2141 45.2364Z" fill="#FFD600"/>
<path d="M42.3338 20.3736L43.1302 22.1653L52.4827 18.008L51.6862 16.2163L42.3338 20.3736Z" fill="#FFD600"/>
<path d="M49.5992 12.0659L36.0904 18.301L36.9117 20.0804L50.4205 13.8453L49.5992 12.0659Z" fill="#FFD600"/>
</svg>
