<svg width="34" height="34" viewBox="0 0 34 34" fill="none" xmlns="http://www.w3.org/2000/svg">
<g clip-path="url(#clip0_71_444)">
<path d="M27.625 34H6.375C2.85391 34 0 31.1461 0 27.625V6.375C0 2.85391 2.85391 0 6.375 0H27.625C31.1461 0 34 2.85391 34 6.375V27.625C34 31.1461 31.1461 34 27.625 34Z" fill="#FFD600"/>
<path d="M17 5.5C10.6593 5.5 5.5 10.6593 5.5 17C5.5 23.3407 10.6593 28.5 17 28.5C23.3407 28.5 28.5 23.3407 28.5 17C28.5 10.6593 23.3407 5.5 17 5.5ZM22.829 14.5633L16.6003 20.792C16.4136 20.9791 16.1675 21.0724 15.9233 21.0724C15.6776 21.0724 15.433 20.9791 15.2463 20.792L12.1312 17.677C11.7575 17.3032 11.7575 16.6968 12.1312 16.3216C12.505 15.9464 13.1115 15.9478 13.4866 16.3216L15.9233 18.7579L21.475 13.2066C21.8488 12.8328 22.4552 12.8328 22.8304 13.2066C23.2055 13.5803 23.2027 14.1882 22.829 14.5633Z" fill="white"/>
</g>
<defs>
<clipPath id="clip0_71_444">
<rect width="34" height="34" fill="white"/>
</clipPath>
</defs>
</svg>
