<svg width="14" height="9" viewBox="0 0 14 9" fill="none" xmlns="http://www.w3.org/2000/svg">
<path d="M13.4446 2.16669H0.0834961V3.25003H13.4446V2.16669Z" fill="#90989F"/>
<path d="M0.0834961 3.79169V7.31252C0.0834961 8.05893 0.708127 8.66668 1.47527 8.66668H12.0528C12.8199 8.66668 13.4446 8.05893 13.4446 7.31252V3.79169H0.0834961ZM2.032 5.41668H4.25884C4.41249 5.41668 4.5372 5.53803 4.5372 5.68753C4.5372 5.83702 4.41249 5.95834 4.25884 5.95834H2.032C1.87834 5.95834 1.75363 5.837 1.75363 5.6875C1.75363 5.538 1.87834 5.41668 2.032 5.41668ZM5.92897 7.04168H2.032C1.87834 7.04168 1.75363 6.92034 1.75363 6.77084C1.75363 6.62134 1.87834 6.5 2.032 6.5H5.92897C6.08262 6.5 6.20734 6.62134 6.20734 6.77084C6.20734 6.92034 6.08317 7.04168 5.92897 7.04168Z" fill="#90989F"/>
<path d="M12.0528 0H1.47527C0.708127 0 0.0834961 0.607749 0.0834961 1.35418V1.62502H13.4446V1.35418C13.4446 0.607749 12.82 0 12.0528 0Z" fill="#90989F"/>
</svg>
