<svg width="19" height="11" viewBox="0 0 19 11" fill="none" xmlns="http://www.w3.org/2000/svg">
<path d="M18.4179 5.33588L16.6835 2.52338C16.5795 2.3535 16.391 2.25 16.1875 2.25H12.7188V0.5625C12.7188 0.252 12.4598 0 12.1406 0H4.04688C3.72775 0 3.46875 0.252 3.46875 0.5625V1.125H0.578125C0.259 1.125 0 1.377 0 1.6875C0 1.998 0.259 2.25 0.578125 2.25H3.46875V3.375H1.73438C1.41525 3.375 1.15625 3.627 1.15625 3.9375C1.15625 4.248 1.41525 4.5 1.73438 4.5H3.46875V5.625H2.89062C2.5715 5.625 2.3125 5.877 2.3125 6.1875C2.3125 6.498 2.5715 6.75 2.89062 6.75H3.46875V8.4375C3.46875 8.748 3.72775 9 4.04688 9H5.88763C6.12697 9.65362 6.76291 10.125 7.51562 10.125C8.26834 10.125 8.90428 9.65362 9.14363 9H12.1406H12.7188H13.9814C14.2207 9.65362 14.8567 10.125 15.6094 10.125C16.3621 10.125 16.998 9.65362 17.2374 9H17.9219C18.241 9 18.5 8.748 18.5 8.4375V5.625C18.5 5.52262 18.4722 5.4225 18.4179 5.33588ZM7.51562 9C7.1965 9 6.9375 8.74687 6.9375 8.4375C6.9375 8.12813 7.1965 7.875 7.51562 7.875C7.83475 7.875 8.09375 8.12813 8.09375 8.4375C8.09375 8.74687 7.83475 9 7.51562 9ZM15.6094 9C15.2914 9 15.0312 8.74687 15.0312 8.4375C15.0312 8.12813 15.2914 7.875 15.6094 7.875C15.9273 7.875 16.1875 8.12813 16.1875 8.4375C16.1875 8.74687 15.9273 9 15.6094 9ZM13.875 5.625V3.375H15.8603L17.2478 5.625H13.875Z" fill="#90989F"/>
</svg>
