<svg width="17" height="17" viewBox="0 0 17 17" fill="none" xmlns="http://www.w3.org/2000/svg">
<path d="M8.50002 0C13.1868 0 17 3.81318 17 8.49998C17 13.1868 13.1868 17 8.50002 17C3.81322 17 3.43323e-05 13.1868 3.43323e-05 8.49998C3.43323e-05 3.81318 3.81318 0 8.50002 0ZM4.91228 12.087C4.98473 12.1594 5.07931 12.1956 5.17393 12.1956C5.26855 12.1956 5.36314 12.1594 5.43558 12.0877L8.50002 9.02256L11.5645 12.087C11.6369 12.1594 11.7315 12.1956 11.8261 12.1956C11.9207 12.1956 12.0153 12.1594 12.0878 12.0877C12.2319 11.9436 12.2319 11.7093 12.0878 11.5651L9.02332 8.50071L12.0878 5.43555C12.2319 5.29142 12.2319 5.0571 12.0878 4.91297C11.9436 4.76884 11.7093 4.76884 11.5652 4.91297L8.50074 7.97741L5.43631 4.91297C5.29218 4.76884 5.05787 4.76884 4.91374 4.91297C4.76961 5.0571 4.76961 5.29142 4.91374 5.43555L7.97744 8.49998L4.91228 11.5644C4.76815 11.7085 4.76815 11.9429 4.91228 12.087Z" fill="#90989F"/>
</svg>
