<svg width="13" height="12" viewBox="0 0 13 12" fill="none" xmlns="http://www.w3.org/2000/svg">
<path d="M1.30434 5.21729C0.585393 5.21729 0 5.80268 0 6.52163V10.6956C0 11.4145 0.585393 11.9999 1.30434 11.9999H2.86956C3.16331 11.9999 3.43356 11.9008 3.65218 11.7359V5.21729H1.30434Z" fill="#90989F"/>
<path d="M12.5217 7.17392C12.5217 6.86037 12.3975 6.56818 12.182 6.35269C12.4257 6.08609 12.5498 5.72869 12.5159 5.3567C12.4549 4.69356 11.8575 4.17391 11.1552 4.17391H7.93244C8.09209 3.6892 8.34774 2.80069 8.34774 2.08695C8.34774 0.955299 7.38618 0 6.78251 0C6.24043 0 5.85329 0.305218 5.83661 0.31774C5.77505 0.367313 5.73905 0.442444 5.73905 0.521732V2.29095L4.23644 5.54609L4.17383 5.57791V11.1699C4.59852 11.3703 5.1359 11.4783 5.47817 11.4783H10.2672C10.8354 11.4783 11.3326 11.0953 11.4495 10.5668C11.5095 10.295 11.4745 10.0211 11.3551 9.78315C11.7406 9.58906 11.9999 9.19201 11.9999 8.73914C11.9999 8.55445 11.9577 8.37758 11.8773 8.21741C12.2629 8.02332 12.5217 7.62627 12.5217 7.17392Z" fill="#90989F"/>
</svg>
