<svg width="12" height="12" viewBox="0 0 12 12" fill="none" xmlns="http://www.w3.org/2000/svg">
<path fill-rule="evenodd" clip-rule="evenodd" d="M5.808 0.658285C5.864 0.466285 6.136 0.466286 6.192 0.658286L7.31284 4.50116C7.33773 4.58649 7.41595 4.64516 7.50484 4.64516H11.3967C11.5893 4.64516 11.6706 4.89053 11.5162 5.00555L8.44343 7.29462C8.37188 7.34792 8.34429 7.44216 8.37579 7.52563L9.84477 11.4178C9.91341 11.5996 9.70846 11.7626 9.54671 11.6548L6.11094 9.36428C6.04376 9.3195 5.95624 9.3195 5.88906 9.36428L2.45329 11.6548C2.29154 11.7626 2.08659 11.5996 2.15523 11.4178L3.62421 7.52563C3.65571 7.44216 3.62812 7.34792 3.55657 7.29462L0.483777 5.00555C0.329378 4.89053 0.410726 4.64516 0.603257 4.64516H4.49516C4.58405 4.64516 4.66227 4.58649 4.68716 4.50116L5.808 0.658285Z" fill="#FFD600"/>
</svg>
