<svg width="13" height="12" viewBox="0 0 13 12" fill="none" xmlns="http://www.w3.org/2000/svg">
<path fill-rule="evenodd" clip-rule="evenodd" d="M6.36401 0.639085C6.42099 0.44899 6.69018 0.44899 6.74716 0.639085L7.90532 4.50259C7.93068 4.58721 8.00856 4.64516 8.09689 4.64516H12.1055C12.2994 4.64516 12.3799 4.89333 12.2229 5.0071L9.06754 7.29415C8.99396 7.34747 8.96559 7.4437 8.99845 7.52841L10.5093 11.4232C10.5794 11.6041 10.3768 11.7689 10.214 11.6633L6.66442 9.36092C6.59822 9.31798 6.51295 9.31798 6.44674 9.36092L2.89721 11.6633C2.73441 11.7689 2.53173 11.6041 2.60191 11.4232L4.11272 7.52841C4.14558 7.4437 4.1172 7.34747 4.04363 7.29415L0.888267 5.0071C0.731302 4.89333 0.811781 4.64516 1.00564 4.64516H5.01427C5.10261 4.64516 5.18048 4.58721 5.20585 4.50259L6.36401 0.639085Z" fill="#DFDFDF"/>
</svg>
