<svg width="73" height="32" viewBox="0 0 73 32" fill="none" xmlns="http://www.w3.org/2000/svg">
<g clip-path="url(#clip0_56_72)">
<path d="M70.4545 0H2.02778C0.907867 0 0 0.89543 0 2V30C0 31.1046 0.907867 32 2.02778 32H70.4545C71.5744 32 72.4823 31.1046 72.4823 30V2C72.4823 0.89543 71.5744 0 70.4545 0Z" fill="white"/>
<path d="M10.356 20.0916C10.356 21.5451 11.5552 22.7278 13.0288 22.7278H21.443C22.9166 22.7278 24.1158 21.5451 24.1158 20.0916V11.7927C24.1158 10.3393 22.9166 9.15649 21.443 9.15649H13.0288C11.5552 9.15649 10.356 10.3393 10.356 11.7927V20.0916Z" fill="url(#paint0_linear_56_72)"/>
<path d="M19.5044 9.8283L12.9033 13.0288L22.6104 12.8549L21.4236 10.4742C21.0747 9.77273 20.2149 9.48407 19.5044 9.8283Z" fill="#8BC53F"/>
<path d="M21.0209 11.004L12.4121 13.1401L23.1033 13.4157L22.7616 12.0309C22.5677 11.2732 21.7885 10.8135 21.0209 11.004Z" fill="#008F4C"/>
<path d="M21.8814 19.0063C22.4309 19.0063 22.8764 18.5669 22.8764 18.0249C22.8764 17.4829 22.4309 17.0435 21.8814 17.0435C21.3317 17.0435 20.8862 17.4829 20.8862 18.0249C20.8862 18.5669 21.3317 19.0063 21.8814 19.0063Z" fill="white"/>
<path d="M21.5946 12.9668H12.4311C12.303 12.9668 12.1992 13.0693 12.1992 13.1948C12.1992 13.3204 12.303 13.4229 12.4311 13.4229H21.5946C22.9759 13.4229 24.0991 14.5465 24.0991 15.927L24.124 16.2178V14.3805C23.6016 13.5333 22.6629 12.9668 21.5946 12.9668Z" fill="white"/>
<g opacity="0.65">
<path opacity="0.65" d="M12.1438 21.1511C12.4142 21.1511 12.6333 20.935 12.6333 20.6683C12.6333 20.4017 12.4142 20.1855 12.1438 20.1855C11.8735 20.1855 11.6543 20.4017 11.6543 20.6683C11.6543 20.935 11.8735 21.1511 12.1438 21.1511Z" fill="#BA3827"/>
<path opacity="0.65" d="M11.9961 19.9649C12.2674 19.9052 12.4398 19.6459 12.381 19.3856C12.3222 19.1254 12.0545 18.9627 11.7832 19.0224C11.5118 19.082 11.3394 19.3414 11.3982 19.6016C11.457 19.8619 11.7247 20.0245 11.9961 19.9649Z" fill="#BA3827"/>
<path opacity="0.65" d="M13.2918 21.6475C13.5621 21.6475 13.7813 21.4313 13.7813 21.1647C13.7813 20.898 13.5621 20.6819 13.2918 20.6819C13.0213 20.6819 12.8022 20.898 12.8022 21.1647C12.8022 21.4313 13.0213 21.6475 13.2918 21.6475Z" fill="#BA3827"/>
<path opacity="0.65" d="M13.1633 20.4028C13.4336 20.4028 13.6528 20.1867 13.6528 19.92C13.6528 19.6534 13.4336 19.4373 13.1633 19.4373C12.8929 19.4373 12.6738 19.6534 12.6738 19.92C12.6738 20.1867 12.8929 20.4028 13.1633 20.4028Z" fill="#BA3827"/>
</g>
<path d="M29.6886 18.8837H28.207L30.9925 11.5178H32.2964L35.0825 18.8837H33.6002L33.0668 17.3639H30.222L29.6886 18.8837ZM32.5927 16.0779L31.6444 13.3891L30.6962 16.0779H32.5927Z" fill="#00527D"/>
<path d="M38.4603 13.4468C38.7997 13.4468 39.1239 13.5153 39.4327 13.6517C39.7407 13.7881 40.0114 13.9794 40.2448 14.2247C40.4775 14.4701 40.6633 14.7609 40.8016 15.0957C40.9399 15.4313 41.0094 15.7972 41.0094 16.1948C41.0094 16.5924 40.9399 16.959 40.8016 17.2939C40.6633 17.6295 40.4775 17.9196 40.2448 18.1649C40.0114 18.4103 39.7407 18.6015 39.4327 18.7379C39.1247 18.8743 38.8005 18.9429 38.4603 18.9429C38.2312 18.9429 38.0315 18.9154 37.8618 18.8613C37.692 18.8072 37.5435 18.7487 37.4169 18.686C37.2749 18.608 37.1484 18.5185 37.0379 18.4168V20.7549H35.6748V13.5052H36.6823L36.9194 14.0313C37.0379 13.9223 37.1762 13.8249 37.3342 13.739C37.4689 13.669 37.6305 13.6027 37.8201 13.5406C38.0096 13.4785 38.2232 13.4468 38.4603 13.4468ZM36.9194 16.1948C36.9194 16.6394 37.0496 16.9937 37.3108 17.2585C37.572 17.5234 37.8954 17.6562 38.2832 17.6562C38.6702 17.6562 38.9944 17.5234 39.2556 17.2585C39.5168 16.9937 39.647 16.6386 39.647 16.1948C39.647 15.7503 39.5168 15.396 39.2556 15.1311C38.9951 14.8663 38.6709 14.7335 38.2832 14.7335C37.8961 14.7335 37.572 14.8663 37.3108 15.1311C37.0496 15.396 36.9194 15.7503 36.9194 16.1948Z" fill="#00527D"/>
<path d="M46.8768 17.247C46.8058 17.4498 46.6968 17.6526 46.5505 17.8546C46.4042 18.0574 46.2264 18.2385 46.0171 18.398C45.8078 18.5575 45.5708 18.6881 45.306 18.7899C45.041 18.8909 44.755 18.9421 44.4462 18.9421C44.0745 18.9421 43.7248 18.87 43.397 18.7257C43.0692 18.5813 42.7809 18.385 42.5315 18.1353C42.2827 17.8857 42.0852 17.5956 41.9387 17.2643C41.7924 16.9331 41.7192 16.5766 41.7192 16.1948C41.7192 15.8131 41.7924 15.4566 41.9387 15.1253C42.0852 14.7941 42.2827 14.504 42.5315 14.2543C42.7802 14.0046 43.0684 13.8083 43.397 13.664C43.7248 13.5197 44.0745 13.4475 44.4462 13.4475C44.8018 13.4475 45.1377 13.5139 45.4537 13.646C45.7698 13.7787 46.0464 13.9657 46.2835 14.2074C46.5205 14.4492 46.7078 14.7393 46.8468 15.0784C46.9851 15.4176 47.0546 15.79 47.0546 16.1948C47.0546 16.2576 47.0503 16.3175 47.043 16.376C47.0349 16.4344 47.0268 16.4907 47.0195 16.5456C47.0114 16.6083 47.0034 16.6668 46.9961 16.7209H43.2024C43.2653 16.9858 43.4 17.208 43.6055 17.387C43.8111 17.5667 44.0913 17.6562 44.4469 17.6562C44.6284 17.6562 44.7806 17.6367 44.9035 17.5977C45.0257 17.5587 45.1304 17.5118 45.2174 17.4577C45.3125 17.3957 45.3915 17.3249 45.4544 17.247H46.8768ZM44.4469 14.7328C44.0913 14.7328 43.8009 14.8345 43.5756 15.0366C43.3502 15.2394 43.206 15.4891 43.1431 15.7849H45.7508C45.6871 15.4891 45.543 15.2394 45.3183 15.0366C45.0931 14.8345 44.8026 14.7328 44.4469 14.7328Z" fill="#00527D"/>
<path d="M49.4251 18.8837H48.062V11.5178H49.4251V18.8837Z" fill="#00527D"/>
<path d="M51.7372 17.1885C51.7687 17.3682 51.8558 17.5198 51.9977 17.6446C52.1396 17.7695 52.3299 17.8315 52.5669 17.8315C52.8039 17.8315 52.992 17.7709 53.1303 17.6504C53.2686 17.5299 53.3381 17.3949 53.3381 17.247C53.3381 17.1221 53.2686 17.0247 53.1303 16.9547C52.992 16.8847 52.8201 16.8205 52.6145 16.762C52.4088 16.7036 52.1857 16.643 51.945 16.5809C51.7036 16.5189 51.4804 16.4272 51.2755 16.306C51.0699 16.1854 50.8979 16.0296 50.7596 15.8383C50.6214 15.6471 50.5519 15.396 50.5519 15.0842C50.5519 14.8663 50.5972 14.6577 50.688 14.4585C50.7787 14.2601 50.9111 14.0862 51.0853 13.9382C51.2587 13.7903 51.4643 13.6712 51.7013 13.5817C51.9384 13.4923 52.207 13.4475 52.5077 13.4475C53.1633 13.4475 53.6674 13.6034 54.0193 13.9151C54.3705 14.2269 54.5783 14.6166 54.6419 15.0842H53.3381C53.3066 14.9673 53.2218 14.8504 53.0835 14.7335C52.9452 14.6166 52.7732 14.5581 52.5676 14.5581C52.3621 14.5581 52.2018 14.6086 52.0876 14.7104C51.9728 14.8121 51.9157 14.9363 51.9157 15.0842C51.9157 15.2091 51.9845 15.3065 52.1235 15.3765C52.2618 15.4465 52.4338 15.5107 52.6394 15.5692C52.8449 15.6276 53.0681 15.6904 53.3089 15.7561C53.5496 15.8225 53.7727 15.9177 53.9783 16.0426C54.184 16.1674 54.3558 16.3291 54.4941 16.5275C54.6324 16.726 54.702 16.9858 54.702 17.3047C54.702 17.5234 54.6544 17.7312 54.56 17.9304C54.4649 18.1288 54.331 18.3028 54.1569 18.4507C53.9827 18.5986 53.7713 18.7177 53.5225 18.8072C53.2737 18.8967 52.995 18.9414 52.6869 18.9414C51.9757 18.9414 51.4365 18.7819 51.0685 18.4623C50.7011 18.1426 50.4897 17.7182 50.4341 17.1878H51.7372V17.1885Z" fill="#00527D"/>
<path d="M56.4194 12.8037C56.2138 12.8037 56.0338 12.728 55.8801 12.5757C55.7258 12.4234 55.6489 12.2466 55.6489 12.0438C55.6489 11.841 55.7258 11.6635 55.8801 11.512C56.0345 11.3597 56.2138 11.2839 56.4194 11.2839C56.625 11.2839 56.805 11.3597 56.9587 11.512C57.1123 11.6642 57.1898 11.841 57.1898 12.0438C57.1898 12.2466 57.113 12.4241 56.9587 12.5757C56.805 12.728 56.625 12.8037 56.4194 12.8037ZM57.0713 18.8836H55.7082V13.5052H57.0713V18.8836Z" fill="#00527D"/>
<path d="M61.1612 13.4468C61.4854 13.4468 61.7817 13.4995 62.0502 13.6048C62.3187 13.7102 62.5499 13.8617 62.7438 14.0609C62.9369 14.2594 63.0877 14.4997 63.1946 14.7797C63.3013 15.0604 63.3548 15.3757 63.3548 15.7265V18.883H61.9917V15.9018C61.9917 15.5511 61.8871 15.2689 61.6778 15.0539C61.4685 14.8396 61.1978 14.732 60.8657 14.732C60.5334 14.732 60.2627 14.8396 60.0534 15.0539C59.8442 15.2682 59.7395 15.5511 59.7395 15.9018V18.883H58.3765V13.5045H59.384L59.621 14.0306C59.7557 13.9216 59.9012 13.8242 60.0593 13.7383C60.194 13.6683 60.3534 13.6019 60.5393 13.5399C60.7244 13.4785 60.9315 13.4468 61.1612 13.4468Z" fill="#00527D"/>
</g>
<!-- <rect x="0.5" y="0.5" width="72" height="31" stroke="#E7E7E7"/> -->
<defs>
<linearGradient id="paint0_linear_56_72" x1="22.7957" y1="9.74696" x2="11.5583" y2="22.6196" gradientUnits="userSpaceOnUse">
<stop stop-color="#FCB94D"/>
<stop offset="0.3065" stop-color="#F7903F"/>
<stop offset="0.7747" stop-color="#F1562B"/>
<stop offset="1" stop-color="#EE4023"/>
</linearGradient>
<clipPath id="clip0_56_72">
<rect width="73" height="32" fill="white"/>
</clipPath>
</defs>
</svg>
