<svg width="73" height="32" viewBox="0 0 73 32" fill="none" xmlns="http://www.w3.org/2000/svg">
<g clip-path="url(#clip0_56_55)">
<path d="M70.4545 0H2.02778C0.907867 0 0 0.89543 0 2V30C0 31.1046 0.907867 32 2.02778 32H70.4545C71.5744 32 72.4823 31.1046 72.4823 30V2C72.4823 0.89543 71.5744 0 70.4545 0Z" fill="white"/>
<path fill-rule="evenodd" clip-rule="evenodd" d="M60.7474 14.7993C61.0935 15.2859 61.1283 16.0527 60.7609 16.6469C60.4329 17.1777 58.4702 19.2144 57.8314 19.8689C57.2777 20.4374 56.5305 21.0067 55.7949 21.0067H40.394C38.3126 21.0067 38.187 20.3133 38.187 18.7458V12.387C38.187 10.786 38.6679 10.3232 40.0893 10.3232H55.7949C56.5305 10.3232 57.1851 10.6921 57.9369 11.4432C58.5751 12.0806 60.4818 14.425 60.7474 14.7993Z" fill="#33CCCC"/>
<path fill-rule="evenodd" clip-rule="evenodd" d="M60.7474 14.7993C61.0935 15.2859 61.1283 16.0527 60.7609 16.6469C60.4329 17.1777 58.4702 19.2144 57.8314 19.8689C57.2777 20.4374 56.5305 21.0067 55.7949 21.0067H40.394C38.3126 21.0067 38.187 20.3133 38.187 18.7458V12.387C38.187 10.786 38.6679 10.3232 40.0893 10.3232H55.7949C56.5305 10.3232 57.1851 10.6921 57.9369 11.4432C58.5751 12.0806 60.4818 14.425 60.7474 14.7993Z" fill="url(#paint0_linear_56_55)"/>
<path fill-rule="evenodd" clip-rule="evenodd" d="M41.6781 12.782V12.7401C41.6781 12.5357 41.6606 12.3336 41.3197 12.3336H40.0326C39.7334 12.3336 39.7146 12.4961 39.7146 12.7487V14.4292C40.3411 13.5489 41.0358 13.14 41.6781 12.782ZM50.3125 18.8543V18.7641H50.3134V14.7194C50.3134 13.0232 49.5545 12.1752 48.0366 12.1754C47.616 12.1715 47.2026 12.2826 46.8424 12.4961C46.4811 12.7101 46.1339 13.009 45.801 13.3927C45.6373 12.9757 45.3904 12.6685 45.0605 12.4713C44.7305 12.2741 44.3029 12.1754 43.7778 12.1754C43.17 12.1754 42.4634 12.3846 41.9626 12.7894C41.8504 12.8997 39.7143 14.5516 39.7143 16.2482V18.8377C39.7143 18.9201 39.6738 19.2325 40.0302 19.2325H41.3702C41.7867 19.2325 41.746 18.9645 41.746 18.8543V14.6662C41.9722 14.3714 42.4343 13.6435 43.1849 13.6435C43.473 13.6435 43.6805 13.7393 43.8073 13.9309C43.9342 14.1224 43.9979 14.4437 43.9984 14.8945V18.1657H43.9968V18.8378C43.9968 18.9201 43.9564 19.2326 44.3126 19.2326H45.6354C46.0522 19.2326 46.0115 18.9646 46.0115 18.8544V18.7641H46.0131V14.6664C46.2555 14.3716 46.7383 13.6437 47.4517 13.6437C47.7451 13.6437 47.9568 13.7395 48.0867 13.931C48.2164 14.1226 48.2813 14.4438 48.2811 14.8947V18.1658H48.2798V18.838C48.2798 18.9203 48.2396 19.2328 48.596 19.2328H49.9364C50.3532 19.2326 50.3125 18.9645 50.3125 18.8543ZM57.6918 17.2098C57.2155 18.4692 56.0742 19.1729 54.6601 19.1729C52.6119 19.1729 51.2588 17.8016 51.2588 15.7449C51.2588 13.7129 52.6634 12.2401 54.5963 12.2401C56.5085 12.2401 57.7909 13.5484 57.8724 15.656C57.8828 15.9253 57.8027 16.1632 57.4603 16.1632H53.1139C53.1398 17.2933 53.6944 17.9029 54.6733 17.9029C55.2704 17.9029 55.6241 17.65 55.9321 17.1543C56.0661 16.9386 56.3406 16.9506 56.3406 16.9506H57.4603C57.643 16.9505 57.724 17.1259 57.6918 17.2097V17.2098ZM54.5963 13.5476C53.7839 13.5476 53.217 14.1062 53.1139 15.0209H56.0262C55.949 14.2209 55.5106 13.5476 54.5963 13.5476Z" fill="white"/>
<path fill-rule="evenodd" clip-rule="evenodd" d="M20.1662 10.3814C19.994 10.1119 19.7706 9.87737 19.5083 9.69074C19.2461 9.50966 18.9579 9.36768 18.6533 9.2694C18.3151 9.16115 17.9657 9.08983 17.6116 9.05674C17.2063 9.01759 16.7994 8.99868 16.3924 9.00007H12.8246C12.5037 9.00007 12.1675 9.20709 12.1675 9.59749V15.2815C12.6194 16.2288 13.4998 17.2346 14.5007 17.7152V16.588C14.5007 15.9931 14.9567 15.8602 15.1453 15.8602H16.2002C17.6533 15.8602 18.7623 15.5604 19.5274 14.9608C20.2924 14.362 20.6749 13.4727 20.6749 12.2926C20.6771 11.9517 20.6368 11.6117 20.5551 11.2804C20.4738 10.9627 20.3426 10.6594 20.1662 10.3814ZM18.0871 13.3006C17.9639 13.5106 17.7802 13.6801 17.5591 13.7878C17.3195 13.9001 17.0606 13.9675 16.7959 13.9864C16.5075 14.0117 16.2098 14.0244 15.9026 14.0244H14.9001C14.6549 14.0244 14.5007 13.8283 14.5007 13.5389V11.215C14.5007 10.9544 14.6737 10.8451 14.8811 10.8451H15.9026C16.2353 10.8451 16.5474 10.8545 16.8388 10.8734C17.101 10.8852 17.3585 10.9462 17.5974 11.0534C17.8103 11.1529 17.9865 11.3149 18.1017 11.517C18.223 11.7249 18.2838 12.0182 18.2839 12.397C18.2839 12.7817 18.2183 13.0828 18.0871 13.3006ZM14.5007 18.0826C13.3999 17.6504 12.6619 17.1348 12.1675 16.6237V19.3677C12.1675 19.3677 12.1267 19.8152 12.5701 19.8152H14.1266C14.5536 19.8152 14.501 19.3677 14.501 19.3677V18.0826H14.5007ZM36.5599 11.9902H35.163C34.8791 11.9902 34.692 12.1075 34.5795 12.4142C34.4669 12.721 32.9862 16.7727 32.9862 16.7727C32.9862 16.7727 31.5698 12.8047 31.4583 12.4974C31.3469 12.1902 31.1638 11.9902 30.8341 11.9902H29.5505C29.0977 11.9902 29.0977 12.3397 29.1538 12.4783C29.1994 12.5903 30.9572 17.3239 31.6266 19.1272C31.7845 19.553 31.8469 19.6811 31.8517 19.8388C31.8567 19.9965 31.6935 20.3277 31.5806 20.5177C31.5289 20.6044 31.4694 20.6866 31.4029 20.7631C32.7155 20.377 34.2282 18.976 35.0104 17.4583C35.784 15.3431 36.8041 12.549 36.8483 12.4061C36.9195 12.1746 36.9187 11.9902 36.5599 11.9902ZM30.3915 21.1656C30.2703 21.1635 30.1492 21.1549 30.029 21.1398C29.8817 21.1207 29.6062 21.1477 29.6062 21.3848V22.4445C29.6062 22.8489 29.803 22.8759 29.9114 22.8999C30.2373 22.9666 30.5698 22.9982 30.9027 22.994C31.3441 22.994 31.728 22.9151 32.0547 22.7574C32.3846 22.597 32.6786 22.3734 32.9193 22.0998C33.1847 21.7952 33.409 21.4582 33.5865 21.0972C33.7816 20.7092 33.9687 20.2819 34.1482 19.8152C34.1482 19.8152 34.225 19.6042 34.3517 19.2587C33.9664 19.6408 32.1502 21.3329 30.3915 21.1656ZM28.2937 13.2482C28.218 13.0711 28.1143 12.9068 27.9869 12.7611C27.8597 12.6213 27.7144 12.4987 27.5544 12.3966C27.3817 12.2864 27.1985 12.1929 27.0075 12.1175C26.8123 12.0426 26.6117 11.9826 26.4071 11.9379C26.1747 11.8879 25.9388 11.8547 25.7015 11.8386C25.4451 11.8198 25.1569 11.8104 24.837 11.8102C22.7207 11.8102 21.5157 12.4674 21.2219 13.7817C21.1264 14.1895 21.537 14.2135 21.537 14.2135H22.8389C23.1787 14.2135 23.1641 14.1059 23.3291 13.8039C23.3884 13.6396 23.4954 13.4959 23.6367 13.3903C23.8865 13.2012 24.2609 13.1067 24.7601 13.1066C25.2404 13.1066 25.5891 13.198 25.8068 13.3807C26.0243 13.5635 26.1524 13.841 26.1909 14.2135C26.1909 14.6453 26.0538 14.9335 25.5224 14.9335C24.227 14.8872 22.8349 15.0312 22.0509 15.4729C21.2668 15.9145 20.8237 16.778 20.8237 17.7052C20.8237 18.0834 20.8924 18.4146 21.0301 18.6987C21.1635 18.9772 21.3607 19.2217 21.6064 19.4129C21.867 19.6126 22.1656 19.759 22.4848 19.8435C22.8476 19.9412 23.2223 19.9891 23.5985 19.9857C24.1619 19.9857 24.6597 19.9163 25.0918 19.7774C25.5238 19.6388 26.1925 19.1819 26.2776 19.1152V19.3588C26.2776 19.6002 26.3524 19.8155 26.6455 19.8155H28.1595C28.4658 19.8155 28.534 19.6002 28.534 19.3352V14.753C28.5366 14.4681 28.5175 14.1835 28.4765 13.9015C28.444 13.677 28.3826 13.4575 28.2937 13.2482ZM26.2294 17.741C26.2294 17.741 25.8385 18.5388 24.4432 18.5388C24.0594 18.5388 23.7473 18.4537 23.5071 18.2835C23.2668 18.1132 23.1468 17.8483 23.1469 17.4886C23.1469 17.0215 23.3422 16.6918 23.7329 16.4995C24.1232 16.3073 24.9045 16.1975 25.49 16.211C26.0755 16.2244 26.2294 16.588 26.2294 16.8389V17.7412V17.741Z" fill="#333333"/>
</g>
<!-- <rect x="0.5" y="0.5" width="72" height="31" stroke="#FFD600"/> -->
<defs>
<linearGradient id="paint0_linear_56_55" x1="68.5671" y1="13.4079" x2="65.6781" y2="31.1677" gradientUnits="userSpaceOnUse">
<stop offset="0.47231" stop-color="#00CCCC"/>
<stop offset="1" stop-color="#3399FF"/>
</linearGradient>
<clipPath id="clip0_56_55">
<rect width="73" height="32" fill="white"/>
</clipPath>
</defs>
</svg>
