<svg width="72" height="32" viewBox="0 0 72 32" fill="none" xmlns="http://www.w3.org/2000/svg">
<g clip-path="url(#clip0_56_65)">
<path d="M69.4894 0H2C0.89543 0 0 0.89543 0 2V30C0 31.1046 0.89543 32 2 32H69.4894C70.594 32 71.4894 31.1046 71.4894 30V2C71.4894 0.89543 70.594 0 69.4894 0Z" fill="white"/>
<path fill-rule="evenodd" clip-rule="evenodd" d="M44.6746 13.8711C44.6746 17.0782 43.9417 19.4682 42.4772 21.0254C41.0127 22.5827 38.7499 23.361 35.6992 23.361C32.849 23.361 30.6866 22.5824 29.2121 21.0254C27.7375 19.4684 27.0004 17.1201 27.0005 13.9807V3.44752C27.0012 3.20078 27.201 3.00087 27.4478 3H32.6159C32.8627 3.00074 33.0627 3.20069 33.0634 3.44752V14.2109C33.0634 15.4928 33.3005 16.4794 33.7831 17.1754C34.652 18.3273 36.2901 18.5566 37.4419 17.6878C37.6147 17.5574 37.7707 17.4061 37.9062 17.2373C38.3779 16.5842 38.613 15.6218 38.6115 14.3501V12.3344H44.6746V13.8711Z" fill="#203E7A"/>
<path fill-rule="evenodd" clip-rule="evenodd" d="M44.2057 11.1571H38.6118V3.46866C38.6125 3.21012 38.8219 3.00069 39.0804 3H39.9177C39.9195 5.62515 42.0482 7.75227 44.6733 7.75227H44.6746V11.1571H44.2057Z" fill="#203E7A"/>
<path fill-rule="evenodd" clip-rule="evenodd" d="M41.1094 3H44.2062C44.4647 3.00074 44.6741 3.21012 44.6748 3.46864V6.56932C42.7057 6.56932 41.1094 4.97303 41.1094 3.00386V3Z" fill="#F4821F"/>
<path fill-rule="evenodd" clip-rule="evenodd" d="M43.4828 28.0153H43.075V26.6098H43.4828C43.8451 26.5831 44.1606 26.8552 44.1873 27.2175C44.1897 27.2496 44.1897 27.2819 44.1873 27.3141C44.203 27.6855 43.9147 27.9993 43.5433 28.015C43.5227 28.0159 43.5021 28.0158 43.4815 28.0147L43.4828 28.0153ZM43.4828 28.4365C44.1873 28.4365 44.6761 27.9916 44.6761 27.3141C44.6761 26.6366 44.1863 26.1883 43.4828 26.1883H42.5963V28.4365H43.4828ZM40.5279 27.2164H40.0257V26.6098H40.5262C40.6938 26.5922 40.8439 26.7137 40.8615 26.8812C40.8791 27.0487 40.7576 27.1988 40.5901 27.2164C40.5689 27.2186 40.5475 27.2186 40.5262 27.2164H40.5279ZM41.6866 29L40.8617 27.5804C41.166 27.507 41.3736 27.2254 41.3538 26.913C41.3685 26.5266 41.0672 26.2014 40.6808 26.1867C40.6534 26.1856 40.626 26.1862 40.5987 26.1883H39.5467V28.4365H40.0254V27.6373H40.376L41.1369 28.9995L41.6866 29ZM37.6393 27.6337H36.9382L37.2887 26.6663L37.6393 27.6337ZM38.455 28.436L37.5888 26.1878H36.989L36.1192 28.436H36.6652L36.8067 28.055H37.7708L37.909 28.436H38.455ZM34.2732 28.4765C34.6662 28.4856 35.0305 28.2714 35.2136 27.9235L34.8011 27.7248C34.6989 27.9233 34.4952 28.0491 34.2719 28.0516C33.8642 28.0314 33.5501 27.6846 33.5702 27.2769C33.589 26.8975 33.8924 26.594 34.2719 26.5753C34.4948 26.5792 34.6978 26.7046 34.8011 26.9022L35.2136 26.6998C35.0306 26.3522 34.6657 26.1391 34.2732 26.1504C33.6309 26.1312 33.0947 26.6363 33.0755 27.2785C33.0564 27.9208 33.5614 28.457 34.2037 28.4762C34.2268 28.4769 34.25 28.4769 34.2732 28.4762V28.4765ZM31.9856 28.436V28.0147H30.9003L31.9621 26.5712V26.1868H30.2734V26.6083H31.3352L30.2734 28.0475V28.4342L31.9856 28.436ZM28.0157 28.4765C28.6999 28.4765 29.0303 28.0955 29.0303 27.536V26.1878H28.5405V27.5226C28.5405 27.814 28.3044 28.0502 28.013 28.0502C27.7216 28.0502 27.4854 27.814 27.4854 27.5226V26.1878H27V27.5402C27 28.0929 27.3302 28.4773 28.0147 28.4773L28.0157 28.4765Z" fill="#233C7E"/>
<path fill-rule="evenodd" clip-rule="evenodd" d="M45.2572 26.1459V26.1513C45.2574 26.3825 45.0701 26.57 44.8388 26.5702C44.6076 26.5703 44.4201 26.383 44.4199 26.1518C44.4198 25.9206 44.6071 25.7331 44.8383 25.7329H44.8386H45.2569L45.2572 26.1459Z" fill="#233C7E"/>
</g>
<!-- <rect x="0.5" y="0.5" width="71" height="31" stroke="#E7E7E7"/> -->
<defs>
<clipPath id="clip0_56_65">
<rect width="72" height="32" fill="white"/>
</clipPath>
</defs>
</svg>
